<svg viewBox="0 0 24 24" xmlns="http://www.w3.org/2000/svg">
    <path fill="currentColor" d="m12.000002 3.9999998c-2.9713666 0-5.5479209 1.6073384-6.9277342 4-.1254508.2175377-.2407565.4419071-.3457031.671875a8 8 0 0 0 -.025391.054687c-.1007378.225258-.18955.455564-.2695309.6914068a8 8 0 0 0 -.019531.050781c-.0688352.2076637-.1257807.4198321-.1777346.6347664a8 8 0 0 0 -.041016.160156c-.037232.169383-.065422.342334-.091797.515625a8 8 0 0 0 -.046875.306641c-.015046.133272-.020829.269079-.029297.404296a8 8 0 0 0 -.021484.417969c-.0003473.0309-.00391.06081-.00391.0918 0 .102234.011861.201453.015625.302734a8 8 0 0 0 .019531.400391c.014647.169402.039497.335799.064453.501953a8 8 0 0 0 .039063.261719c.034079.18521.078477.366443.125.546875a8 8 0 0 0 .058594.228516c.062285.21504.1354805.423799.2148438.630859a8 8 0 0 0 .03125.08594c.096103.242351.2038828.479071.3222656.708985.7027176 1.364765 1.7835972 2.495209 3.109375 3.259765.2175377.125451.4419071.240757.671875.345704a8 8 0 0 0 .054687.02539c.225257.100739.4555635.189551.6914063.269531a8 8 0 0 0 .050781.01953c.2076635.06883.4198316.12578.6347661.177734a8 8 0 0 0 .160156.04102c.169383.03723.342334.06542.515625.0918a8 8 0 0 0 .306641.04687c.133273.01505.269079.02083.404296.0293a8 8 0 0 0 .417969.02148c.030905.000341.060815.003901.091801.003901v-.0078a8 8 0 0 0 6.927734-3.9922l-1.732422-1a6 6 0 0 1 -5.33789 2.992188c-.110142-.0026-.219563-.0073-.328125-.01563a6 6 0 0 1 -.314453-.0332c-.07796-.01013-.155453-.02209-.232422-.03516a6 6 0 0 1 -.40625-.08398c-.05056-.01224-.100348-.02556-.150391-.03906a6 6 0 0 1 -.419922-.130859c-.048184-.01691-.096925-.03269-.1445307-.05078a6 6 0 0 1 -.4472656-.193363c-.025757-.01228-.052575-.02252-.078125-.03516a6 6 0 0 1 -.3359375-.179688 6 6 0 0 1 -.4941406-.318359 6 6 0 0 1 -.0292969-.02148 6 6 0 0 1 -.4335937-.347657 6 6 0 0 1 -.0410157-.03711 6 6 0 0 1 -.3730469-.361328c-.024958-.02655-.047791-.05503-.072266-.08203a6 6 0 0 1 -.3242183-.38672c-.012723-.01666-.024558-.03398-.037109-.05078a6 6 0 0 1 -.3144531-.462891 6 6 0 0 1 -.00781-.01367 6 6 0 0 1 -.2617188-.478515c-.013899-.0285-.027556-.05719-.041016-.08594a6 6 0 0 1 -.17969-.427735c-.01998-.05308-.040083-.106366-.058594-.160156a6 6 0 0 1 -.1152341-.376953c-.0188868-.069526-.0382505-.138463-.0546875-.208984a6 6 0 0 1 -.070312-.357422c-.014924-.08791-.027981-.176432-.039063-.265625a6 6 0 0 1 -.029297-.289062c-.00849-.111859-.015257-.224362-.017578-.337891a6 6 0 0 1 .00195-.267578c.00257-.110142.00725-.219563.015625-.328125a6 6 0 0 1 .033203-.314453c.010125-.07796.02209-.155453.035156-.232422a6 6 0 0 1 .083984-.40625c.01224-.05056.025557-.100348.039063-.150391a6 6 0 0 1 .1308593-.419922c.016907-.048184.032692-.096925.050781-.1445311a6 6 0 0 1 .1933631-.4472656c.01228-.025757.022522-.052575.035156-.078125a6 6 0 0 1 .1796877-.3359375c1.0348715-1.7944516 2.9668208-3 5.1953123-3 1.781867 0 3.371703.774441 4.46875 2h-2.46875v2h6v-6h-2v2.7324219c-1.462456-1.669194-3.595762-2.7324219-6-2.7324219z" />
</svg>